# xmcd
#
# Track frame offsets:
#        150
#        29356
#        58002
#
# Disc length: 1168 seconds
#
# Revision: 0
# Processed by: cddbd v1.5PL3 Copyright (c) Steve Scherf et al.
# Submitted via: ExactAudioCopy v0.95a4
#
DISCID=20048e03
DTITLE=Spanova - As Far As Ends Go
DYEAR=2003
DGENRE=Pop
TTITLE0=As Far As Ends Go (Started in 1:30 mix)
TTITLE1=Huge (For strangers with cinema eyes mix)
TTITLE2=As Far As Ends Go (The Astronauts in Mississippi mix)
EXTD=
EXTT0=
EXTT1=
EXTT2=
PLAYORDER=
